<svg id="Camada_2" data-name="Camada 2" xmlns="http://www.w3.org/2000/svg" viewBox="0 0 171.63 173.52"><defs><style>.cls-1{fill:#2e5074;}.cls-2{fill:#dbac3b;}.cls-3{fill:#283473;stroke:#fff;stroke-miterlimit:10;stroke-width:4px;}</style></defs><title>2</title><path class="cls-1" d="M332.55,317.65c0,8.55-5.95,13.74-13.78,13.74-8.79,0-15.1-6.47-15.1-14.49a14.5,14.5,0,0,1,14.66-14.58,14.28,14.28,0,0,1,12.22,6.39l-5.43,3.11a8.4,8.4,0,0,0-15.06,5.12c0,4.75,3.36,8.22,8.79,8.22,3.71,0,6.15-1.63,7.15-4.31h-7.47v-5.59h14Z" transform="translate(-303.67 -157.88)"/><path class="cls-1" d="M346.09,326a5.2,5.2,0,0,0,3.83-1.52l4.8,2.76a10.14,10.14,0,0,1-8.71,4.11c-6.83,0-11.07-4.59-11.07-10.54a10.25,10.25,0,0,1,10.63-10.55c5.83,0,10.14,4.52,10.14,10.55a11.63,11.63,0,0,1-.24,2.4H341.29C342.05,325.32,343.89,326,346.09,326Zm3.67-7.27a4.5,4.5,0,0,0-8.58,0Z" transform="translate(-303.67 -157.88)"/><path class="cls-1" d="M378.28,318.57v12.27h-6V319.45a3.3,3.3,0,0,0-3.48-3.63c-2.19,0-3.71,1.28-3.71,4.11v10.91h-6v-20h6v1.88a6.82,6.82,0,0,1,5.71-2.44C374.85,310.3,378.28,313.18,378.28,318.57Z" transform="translate(-303.67 -157.88)"/><path class="cls-2" d="M401.37,309h-7.19v21.81h-6.39V309H380.6v-6.15h20.77Z" transform="translate(-303.67 -157.88)"/><path class="cls-2" d="M413.55,310.46v6.79c-2.48-.39-6,.6-6,4.56v9h-6v-20h6v3.56C408.35,311.74,411,310.46,413.55,310.46Z" transform="translate(-303.67 -157.88)"/><path class="cls-2" d="M425.89,326a5.2,5.2,0,0,0,3.83-1.52l4.8,2.76a10.14,10.14,0,0,1-8.71,4.11c-6.83,0-11.07-4.59-11.07-10.54a10.25,10.25,0,0,1,10.63-10.55c5.83,0,10.15,4.52,10.15,10.55a11.63,11.63,0,0,1-.24,2.4H421.1C421.85,325.32,423.69,326,425.89,326Zm3.67-7.27a4.5,4.5,0,0,0-8.58,0Z" transform="translate(-303.67 -157.88)"/><path class="cls-2" d="M459.2,310.86v20h-6V329a7.5,7.5,0,0,1-5.95,2.43c-5.23,0-9.55-4.59-9.55-10.54s4.32-10.55,9.55-10.55a7.51,7.51,0,0,1,5.95,2.44v-1.88Zm-6,10a4.76,4.76,0,1,0-4.75,4.87A4.56,4.56,0,0,0,453.21,320.85Z" transform="translate(-303.67 -157.88)"/><path class="cls-2" d="M471.18,316.62v7.07c0,1.71,1.48,1.87,4.12,1.71v5.44c-7.83.8-10.11-1.56-10.11-7.15v-7.07H462v-5.76h3.19v-3.79l6-1.8v5.59h4.12v5.76Z" transform="translate(-303.67 -157.88)"/><circle class="cls-2" cx="91.04" cy="67.6" r="52.85"/><rect class="cls-2" x="84.78" y="17.54" width="15" height="5.43"/><rect class="cls-2" x="84.78" y="54.46" width="13.49" height="5.97"/><rect class="cls-2" x="80.23" y="63" width="21.87" height="9.68"/><rect class="cls-2" x="84.32" y="78.4" width="13.35" height="5.91"/><rect class="cls-2" x="85.41" y="80.26" width="11.17" height="4.95"/><rect class="cls-2" x="84.2" y="113.36" width="12.97" height="5.74"/><path class="cls-1" d="M398.32,292.64a68,68,0,0,1-11.74-.66c-1.82-.26-3.65-.59-5.44-1l.39-1.69c1.73.39,3.52.72,5.3,1a65.43,65.43,0,0,0,11.43.64Zm28.49-7.38-.8-1.55a66,66,0,0,0,13.86-9.52l1.15,1.29A67.88,67.88,0,0,1,426.81,285.26Zm-72.23-6.93A67.48,67.48,0,0,1,342.48,266l1.39-1a65.56,65.56,0,0,0,11.78,12Zm-24.33-39.07a68.61,68.61,0,0,1-1.27-9,67.64,67.64,0,0,1-.08-8.18l1.73.09a66.22,66.22,0,0,0,.09,8A65.22,65.22,0,0,0,332,238.9Zm8-44.76-1.53-.81a66.74,66.74,0,0,1,10-14.06l1.27,1.19A65.42,65.42,0,0,0,338.26,194.5Zm93.36-24.25A65.44,65.44,0,0,0,416.44,163l.54-1.65a66.66,66.66,0,0,1,15.58,7.4Zm-60-5.7-.65-1.61a67.14,67.14,0,0,1,16.7-4.34l.22,1.72A65,65,0,0,0,371.63,164.55Z" transform="translate(-303.67 -157.88)"/><path class="cls-1" d="M399,293.26l-.64,0a69.23,69.23,0,0,1-11.85-.66c-1.85-.26-3.69-.61-5.49-1l-.63-.15.67-2.94.63.14c1.71.39,3.48.71,5.25,1a66.08,66.08,0,0,0,11.32.63l.65,0Zm-17.07-2.77c1.57.34,3.16.63,4.76.86a67.44,67.44,0,0,0,11,.66l0-.45a66.41,66.41,0,0,1-10.9-.66c-1.59-.23-3.18-.51-4.73-.85Zm44.62-4.37-1.38-2.68.57-.3a65.33,65.33,0,0,0,13.72-9.43l.47-.43,2,2.25-.48.43a68.17,68.17,0,0,1-14.35,9.87Zm.35-2.13.2.4a66.86,66.86,0,0,0,13-9l-.3-.34A66.19,66.19,0,0,1,426.88,284Zm-72.2-4.76-.5-.4A67.48,67.48,0,0,1,342,266.4l-.39-.51,2.41-1.82.39.51a65,65,0,0,0,11.67,11.88l.5.39Zm-11.29-13.09a66.45,66.45,0,0,0,11.08,11.28l.28-.35a66.24,66.24,0,0,1-11-11.2ZM329.75,240l-.13-.63a68.16,68.16,0,0,1-1.28-9.11,69,69,0,0,1-.08-8.26l0-.64,3,.15,0,.64a62.93,62.93,0,0,0,.08,7.89,65.42,65.42,0,0,0,1.22,8.71l.13.63Zm-.24-17.29a68.56,68.56,0,0,0,.11,7.45,66.54,66.54,0,0,0,1.13,8.32l.44-.1A65.53,65.53,0,0,1,330,222.75Zm9-27.36L335.86,194l.3-.57a67.69,67.69,0,0,1,10.12-14.18l.43-.47,2.22,2.05-.44.47a64.94,64.94,0,0,0-9.66,13.56Zm-.93-2,.4.22a65.94,65.94,0,0,1,9.11-12.79l-.33-.31A66.9,66.9,0,0,0,337.6,193.42Zm94.21-22.28-.54-.35a64.56,64.56,0,0,0-15-7.14l-.61-.2.93-2.87.62.2a67.16,67.16,0,0,1,15.73,7.48l.54.34Zm-14.56-8.51a65.84,65.84,0,0,1,14.18,6.74l.24-.38a66.31,66.31,0,0,0-14.28-6.79Zm-46,2.76-1.13-2.8.6-.25A67.87,67.87,0,0,1,387.6,158l.64-.08.38,3L388,161a64.28,64.28,0,0,0-16.11,4.19Zm.55-2.09.17.42a65.6,65.6,0,0,1,15.19-3.95l-.06-.45A66.55,66.55,0,0,0,371.82,163.3Z" transform="translate(-303.67 -157.88)"/><path class="cls-2" d="M396.08,287.72H395l0-1.74a60.53,60.53,0,0,0,12.64-1.12,59.55,59.55,0,0,0,10-2.89l.62,1.63a62.71,62.71,0,0,1-10.31,3A61.91,61.91,0,0,1,396.08,287.72Zm-19.8-3.3a61.26,61.26,0,0,1-20.5-11.83l1.14-1.31a59.68,59.68,0,0,0,19.92,11.5Zm58.44-10.31-1.09-1.36a59.7,59.7,0,0,0,14.77-17.62l1.52.84A61.48,61.48,0,0,1,434.72,274.11Zm-91.16-16a61.4,61.4,0,0,1-7.69-19.95c-.15-.76-.28-1.53-.4-2.29l1.71-.27c.12.74.25,1.49.4,2.23a59.45,59.45,0,0,0,7.47,19.38Zm-6.41-41-1.71-.27a61.12,61.12,0,0,1,8.09-22.24l1.49.9A59.37,59.37,0,0,0,337.15,217.11Zm19.7-35.76L355.71,180a60.81,60.81,0,0,1,20.49-11.85l.56,1.65A59,59,0,0,0,356.85,181.35Zm60.73-10.77a59.07,59.07,0,0,0-22.66-4l0-1.74A60.87,60.87,0,0,1,418.2,169Z" transform="translate(-303.67 -157.88)"/><path class="cls-2" d="M396.08,288.37h-1.76l.05-3,.64,0a59.62,59.62,0,0,0,22.42-4l.6-.23,1.08,2.82-.6.24a63.08,63.08,0,0,1-22.43,4.17Zm-.45-1.29a63.12,63.12,0,0,0,12.22-1.15,60.78,60.78,0,0,0,9.6-2.71l-.16-.42a61,61,0,0,1-9.53,2.69,60.35,60.35,0,0,1-12.13,1.14Zm-18.95-1.84-.61-.21a62.06,62.06,0,0,1-20.72-12l-.48-.42,2-2.28.49.42a59,59,0,0,0,19.71,11.38l.61.21Zm-20-12.72a60.41,60.41,0,0,0,19.19,11.08l.14-.42a60.5,60.5,0,0,1-19-11ZM434.62,275l-1.9-2.35.5-.41a58.88,58.88,0,0,0,14.62-17.43l.31-.57,2.65,1.47-.31.56a62.24,62.24,0,0,1-15.37,18.33Zm-.09-2.16.28.35a60.76,60.76,0,0,0,14.24-17l-.4-.22A60.28,60.28,0,0,1,434.53,272.85ZM343.35,259l-.34-.55a62.06,62.06,0,0,1-7.77-20.16c-.15-.76-.29-1.54-.41-2.31l-.1-.64,3-.47.1.64c.11.73.24,1.47.39,2.2a58.76,58.76,0,0,0,7.39,19.18l.33.55Zm-7.14-22.59c.09.55.19,1.09.29,1.64a60.75,60.75,0,0,0,7.28,19.18l.39-.23a60,60,0,0,1-7.22-19q-.17-.81-.3-1.62Zm1.48-18.51-3-.47.1-.64A61.59,61.59,0,0,1,343,194.27l.33-.55,2.59,1.56-.33.55a58.72,58.72,0,0,0-7.78,21.38Zm-1.51-1.54.44.07a59.89,59.89,0,0,1,7.52-20.66l-.39-.24A60.44,60.44,0,0,0,336.18,216.31Zm20.61-34.05-2-2.28.49-.42a61.47,61.47,0,0,1,20.7-12l.61-.2,1,2.86-.61.2a58.38,58.38,0,0,0-19.69,11.4Zm-.17-2.15.3.34a59.43,59.43,0,0,1,19-11l-.14-.43A60.2,60.2,0,0,0,356.62,180.11Zm61.32-8.7-.6-.23a58.18,58.18,0,0,0-22.4-3.93l-.65,0-.06-3h.64a61.3,61.3,0,0,1,23.56,4.13l.6.23ZM396.23,166a59.76,59.76,0,0,1,21,3.8l.16-.42a60.29,60.29,0,0,0-21.83-3.82V166Z" transform="translate(-303.67 -157.88)"/><path class="cls-1" d="M384.1,260.86a36.68,36.68,0,0,0-6.24,8.46,31.4,31.4,0,0,0-2.32,5.89,52.87,52.87,0,0,1,1.21-99,37,37,0,0,0,2.56,6.68,36.55,36.55,0,0,0,5.91,8.6c1.3,1.42,2.65,2.84,3.86,4.11a85.85,85.85,0,0,0-9.38,10.45,35.9,35.9,0,0,0-5.05,9.32,33.9,33.9,0,0,0-1.92,10.47v.21a34.1,34.1,0,0,0,1.55,10.62,36.7,36.7,0,0,0,4.75,9.5,87.94,87.94,0,0,0,9,10.76h0C386.73,258.23,385.38,259.55,384.1,260.86Z" transform="translate(-303.67 -157.88)"/><path class="cls-1" d="M402.83,273.83a27.5,27.5,0,0,0-4.61-6.47c-1.26-1.34-2.56-2.65-3.88-4l-.38.35c-1.2,1.13-2.43,2.29-3.58,3.44a28.21,28.21,0,0,0-4.88,6.4,27.11,27.11,0,0,0-1.88,4.06,53.06,53.06,0,0,0,20.92.25A28.91,28.91,0,0,0,402.83,273.83Zm-2.47,2.47-12.52-.21,0-2a2.45,2.45,0,0,1,2.49-2.4l7.64.13a2.38,2.38,0,0,1,1.71.74,2.42,2.42,0,0,1,.69,1.74Z" transform="translate(-303.67 -157.88)"/><path class="cls-1" d="M394.71,173.1a53.45,53.45,0,0,0-9.62.87,28.6,28.6,0,0,0,6.61,11.43c1.3,1.38,2.61,2.7,3.88,4,1.34-1.26,2.69-2.53,4-3.79a28.12,28.12,0,0,0,4.88-6.41,27.43,27.43,0,0,0,2.13-4.75A53.12,53.12,0,0,0,394.71,173.1Zm7.2,5a2.47,2.47,0,0,1-1.36,2.15,2.59,2.59,0,0,1-1.12.25l-7.65-.13a2.45,2.45,0,0,1-2.4-2.48l0-2,12.52.21Z" transform="translate(-303.67 -157.88)"/><path class="cls-1" d="M406.53,218.9a27.48,27.48,0,0,0-3.42-7.09,77.4,77.4,0,0,0-7.75-9.55,78.68,78.68,0,0,0-8.06,9.29,27.29,27.29,0,0,0-3.65,6.95,25,25,0,0,0-1.23,7.65v.07a24.74,24.74,0,0,0,1,7.63,26.72,26.72,0,0,0,3.41,7.1,78,78,0,0,0,7.75,9.55,76.52,76.52,0,0,0,8.05-9.28,27.6,27.6,0,0,0,3.66-7,25,25,0,0,0,1.22-7.41v-.26A24.73,24.73,0,0,0,406.53,218.9Zm-17.72-3.61a2.45,2.45,0,0,1,2.49-2.4l7.64.13a2.44,2.44,0,0,1,2.4,2.48l0,2-12.52-.21Zm12.11,25.23a2.44,2.44,0,0,1-2.48,2.4l-7.65-.13a2.4,2.4,0,0,1-1.71-.74,2.46,2.46,0,0,1-.69-1.74l0-2,12.52.22Zm4.31-13.71a2.47,2.47,0,0,1-1.36,2.15,2.5,2.5,0,0,1-1.13.25L387,229a2.45,2.45,0,0,1-2.4-2.49l.05-3,20.68.35Z" transform="translate(-303.67 -157.88)"/><path class="cls-1" d="M447.56,226a52.89,52.89,0,0,1-34.67,49.64,36.77,36.77,0,0,0-2.28-5.73,36.16,36.16,0,0,0-5.91-8.6c-1.11-1.23-2.26-2.42-3.36-3.59l-.5-.52a88.66,88.66,0,0,0,9.4-10.46,36.52,36.52,0,0,0,5-9.31,34,34,0,0,0,1.91-10.45v-.78a33.71,33.71,0,0,0-1.55-10.07,36.39,36.39,0,0,0-4.75-9.5,86.46,86.46,0,0,0-9-10.76c1.31-1.28,2.65-2.6,3.95-3.93a37.22,37.22,0,0,0,9-14.85A52.87,52.87,0,0,1,447.56,226Z" transform="translate(-303.67 -157.88)"/><path class="cls-3" d="M410.15,288.78" transform="translate(-303.67 -157.88)"/></svg>